# Blender v2.92.0 OBJ File: ''
# www.blender.org
mtllib PLAYER1.mtl
o mesh0
v 0.956794 1.887650 -0.940462
v 0.956794 0.000000 -0.940463
v -0.930856 0.000000 -0.940463
v -0.930856 1.887650 -0.940462
vn 0.0000 0.0000 -1.0000
usemtl 0.839216_0.886275_0.937255_0.000000_0.000000
s 1
f 1//1 2//1 3//1
f 3//1 4//1 1//1
o mesh1
v 0.956794 0.000000 0.947187
v -0.930856 0.000000 0.947187
v -0.930856 0.000000 -0.940463
v 0.956794 0.000000 -0.940463
vn 0.0000 -1.0000 -0.0000
usemtl 0.839216_0.886275_0.937255_0.000000_0.000000
s 1
f 5//2 6//2 7//2
f 7//2 8//2 5//2
o mesh2
v 0.956794 1.887650 -0.940462
v 0.956794 1.621238 -0.232594
v 0.956794 1.390754 -0.232594
v 0.956794 1.887650 0.947187
v 0.956794 1.621238 0.239319
v 0.956794 0.000000 0.947187
v 0.956794 1.390754 0.239319
v 0.956794 0.000000 -0.940463
vn 1.0000 0.0000 0.0000
usemtl 0.839216_0.886275_0.937255_0.000000_0.000000
s 1
f 9//3 10//3 11//3
f 9//3 12//3 13//3
f 13//3 10//3 9//3
f 12//3 14//3 15//3
f 15//3 13//3 12//3
f 14//3 16//3 11//3
f 11//3 15//3 14//3
f 11//3 16//3 9//3
o mesh3
v 0.956794 1.390754 0.239319
v 0.956794 1.390754 -0.232594
v 1.421325 1.390754 -0.232594
v 1.421325 1.390754 0.239319
vn 0.0000 -1.0000 -0.0000
usemtl 0.839216_0.886275_0.937255_0.000000_0.000000
s 1
f 17//4 18//4 19//4
f 19//4 20//4 17//4
o mesh4
v 1.421325 1.390754 0.239319
v 1.421325 1.390754 -0.232594
v 1.421325 0.435896 -0.232594
v 1.421325 0.435896 0.239319
vn -1.0000 -0.0000 0.0000
usemtl 0.839216_0.886275_0.937255_0.000000_0.000000
s 1
f 21//5 22//5 23//5
f 23//5 24//5 21//5
o mesh5
v 1.651807 0.435896 0.239319
v 1.651807 1.621238 0.239319
v 1.421325 1.390754 0.239319
v 0.956794 1.621238 0.239319
v 0.956794 1.390754 0.239319
v 1.421325 0.435896 0.239319
vn 0.0000 -0.0000 1.0000
usemtl 0.839216_0.886275_0.937255_0.000000_0.000000
s 1
f 25//6 26//6 27//6
f 28//6 29//6 27//6
f 27//6 26//6 28//6
f 27//6 30//6 25//6
o mesh6
v 0.956794 1.621238 -0.232594
v 1.651807 1.621238 -0.232594
v 1.421325 1.390754 -0.232594
v 1.651807 0.435896 -0.232594
v 1.421325 0.435896 -0.232594
v 0.956794 1.390754 -0.232594
vn 0.0000 0.0000 -1.0000
usemtl 0.839216_0.886275_0.937255_0.000000_0.000000
s 1
f 31//7 32//7 33//7
f 34//7 35//7 33//7
f 33//7 32//7 34//7
f 33//7 36//7 31//7
o mesh7
v 1.421325 0.435896 0.239319
v 1.421325 0.435896 -0.232594
v 1.651807 0.435896 -0.232594
v 1.651807 0.435896 0.239319
vn 0.0000 -1.0000 -0.0000
usemtl 0.839216_0.886275_0.937255_0.000000_0.000000
s 1
f 37//8 38//8 39//8
f 39//8 40//8 37//8
o mesh8
v 1.651807 0.435896 0.239319
v 1.651807 0.435896 -0.232594
v 1.651807 1.621238 -0.232594
v 1.651807 1.621238 0.239319
vn 1.0000 -0.0000 0.0000
usemtl 0.839216_0.886275_0.937255_0.000000_0.000000
s 1
f 41//9 42//9 43//9
f 43//9 44//9 41//9
o mesh9
v 1.651807 1.621238 0.239319
v 1.651807 1.621238 -0.232594
v 0.956794 1.621238 -0.232594
v 0.956794 1.621238 0.239319
vn 0.0000 1.0000 0.0000
usemtl 0.839216_0.886275_0.937255_0.000000_0.000000
s 1
f 45//10 46//10 47//10
f 47//10 48//10 45//10
o mesh10
v 0.956794 1.887650 -0.940462
v -0.930856 1.887650 -0.940462
v -0.458944 1.887650 -0.468550
v -0.930856 1.887650 0.947187
v -0.458944 1.887650 0.475275
v 0.956794 1.887650 0.947187
v 0.484881 1.887650 0.475275
v 0.484881 1.887650 -0.468550
vn -0.0000 1.0000 0.0000
usemtl 0.839216_0.886275_0.937255_0.000000_0.000000
s 1
f 49//11 50//11 51//11
f 50//11 52//11 53//11
f 53//11 51//11 50//11
f 52//11 54//11 55//11
f 55//11 53//11 52//11
f 54//11 49//11 56//11
f 56//11 55//11 54//11
f 51//11 56//11 49//11
o mesh11
v 0.484881 2.831474 0.475275
v 0.484881 1.887650 0.475275
v 0.484881 1.887650 -0.468550
v 0.484881 2.831475 -0.468549
vn 1.0000 0.0000 0.0000
usemtl 0.839216_0.886275_0.937255_0.000000_0.000000
s 1
f 57//12 58//12 59//12
f 59//12 60//12 57//12
o mesh12
v 0.484881 2.831475 -0.468549
v 0.484881 1.887650 -0.468550
v -0.458944 1.887650 -0.468550
v -0.458944 2.831475 -0.468549
vn 0.0000 0.0000 -1.0000
usemtl 0.839216_0.886275_0.937255_0.000000_0.000000
s 1
f 61//13 62//13 63//13
f 63//13 64//13 61//13
o mesh13
v -0.458944 2.831475 -0.468549
v -0.458944 1.887650 -0.468550
v -0.458944 1.887650 0.475275
v -0.458944 2.831474 0.475275
vn -1.0000 0.0000 0.0000
usemtl 0.839216_0.886275_0.937255_0.000000_0.000000
s 1
f 65//14 66//14 67//14
f 67//14 68//14 65//14
o mesh14
v -0.458944 2.831474 0.475275
v 0.484881 2.831474 0.475275
v 0.484881 2.831475 -0.468549
v -0.458944 2.831475 -0.468549
vn 0.0000 1.0000 0.0000
usemtl 0.839216_0.886275_0.937255_0.000000_0.000000
s 1
f 69//15 70//15 71//15
f 71//15 72//15 69//15
o mesh15
v -0.930856 1.887650 -0.940462
v -0.930856 0.000000 -0.940463
v -0.930856 1.390754 -0.232594
v -0.930856 0.000000 0.947187
v -0.930856 1.390754 0.239319
v -0.930856 1.887650 0.947187
v -0.930856 1.621238 0.239319
v -0.930856 1.621238 -0.232594
vn -1.0000 -0.0000 0.0000
usemtl 0.839216_0.886275_0.937255_0.000000_0.000000
s 1
f 73//16 74//16 75//16
f 74//16 76//16 77//16
f 77//16 75//16 74//16
f 78//16 79//16 77//16
f 77//16 76//16 78//16
f 78//16 73//16 80//16
f 80//16 79//16 78//16
f 75//16 80//16 73//16
o mesh16
v -1.395384 1.390754 0.239319
v -1.395384 1.390754 -0.232594
v -0.930856 1.390754 -0.232594
v -0.930856 1.390754 0.239319
vn 0.0000 -1.0000 -0.0000
usemtl 0.839216_0.886275_0.937255_0.000000_0.000000
s 1
f 81//17 82//17 83//17
f 83//17 84//17 81//17
o mesh17
v -1.395384 0.435896 0.239319
v -1.395384 0.435896 -0.232594
v -1.395384 1.390754 -0.232594
v -1.395384 1.390754 0.239319
vn 1.0000 -0.0000 0.0000
usemtl 0.839216_0.886275_0.937255_0.000000_0.000000
s 1
f 85//18 86//18 87//18
f 87//18 88//18 85//18
o mesh18
v -0.930856 1.621238 0.239319
v -1.625866 1.621238 0.239319
v -1.395384 1.390754 0.239319
v -1.625866 0.435896 0.239319
v -1.395384 0.435896 0.239319
v -0.930856 1.390754 0.239319
vn 0.0000 0.0000 1.0000
usemtl 0.839216_0.886275_0.937255_0.000000_0.000000
s 1
f 89//19 90//19 91//19
f 92//19 93//19 91//19
f 91//19 90//19 92//19
f 91//19 94//19 89//19
o mesh19
v -1.625866 0.435896 -0.232594
v -1.625866 1.621238 -0.232594
v -1.395384 1.390754 -0.232594
v -0.930856 1.621238 -0.232594
v -0.930856 1.390754 -0.232594
v -1.395384 0.435896 -0.232594
vn 0.0000 0.0000 -1.0000
usemtl 0.839216_0.886275_0.937255_0.000000_0.000000
s 1
f 95//20 96//20 97//20
f 98//20 99//20 97//20
f 97//20 96//20 98//20
f 97//20 100//20 95//20
o mesh20
v -0.930856 1.621238 0.239319
v -0.930856 1.621238 -0.232594
v -1.625866 1.621238 -0.232594
v -1.625866 1.621238 0.239319
vn 0.0000 1.0000 0.0000
usemtl 0.839216_0.886275_0.937255_0.000000_0.000000
s 1
f 101//21 102//21 103//21
f 103//21 104//21 101//21
o mesh21
v -1.625866 1.621238 0.239319
v -1.625866 1.621238 -0.232594
v -1.625866 0.435896 -0.232594
v -1.625866 0.435896 0.239319
vn -1.0000 0.0000 0.0000
usemtl 0.839216_0.886275_0.937255_0.000000_0.000000
s 1
f 105//22 106//22 107//22
f 107//22 108//22 105//22
o mesh22
v -1.625866 0.435896 0.239319
v -1.625866 0.435896 -0.232594
v -1.395384 0.435896 -0.232594
v -1.395384 0.435896 0.239319
vn 0.0000 -1.0000 -0.0000
usemtl 0.839216_0.886275_0.937255_0.000000_0.000000
s 1
f 109//23 110//23 111//23
f 111//23 112//23 109//23
o mesh23
v -0.458944 1.887650 0.475275
v 0.168964 2.359562 0.475275
v -0.143027 2.359562 0.475275
v -0.143027 2.616584 0.475275
v 0.484881 2.831474 0.475275
v 0.168964 2.616584 0.475275
v -0.326651 2.359562 0.475275
v 0.484881 1.887650 0.475275
v 0.352589 2.359562 0.475275
v -0.458944 2.831474 0.475275
v -0.326651 2.616584 0.475275
v 0.352589 2.616584 0.475275
vn 0.0000 -0.0000 1.0000
usemtl 0.839216_0.886275_0.937255_0.000000_0.000000
s 1
f 113//24 114//24 115//24
f 116//24 115//24 114//24
f 117//24 116//24 118//24
f 114//24 118//24 116//24
f 115//24 119//24 113//24
f 120//24 121//24 114//24
f 122//24 123//24 116//24
f 122//24 113//24 119//24
f 114//24 113//24 120//24
f 117//24 124//24 121//24
f 119//24 123//24 122//24
f 121//24 120//24 117//24
f 118//24 124//24 117//24
f 116//24 117//24 122//24
o mesh24
v 0.168964 2.616585 0.286510
v 0.168964 2.616584 0.475275
v 0.168964 2.359562 0.475275
v 0.168964 2.359562 0.286510
vn 1.0000 0.0000 0.0000
usemtl 0.839216_0.886275_0.937255_0.000000_0.000000
s 1
f 125//25 126//25 127//25
f 127//25 128//25 125//25
o mesh25
v 0.168964 2.359562 0.286510
v 0.168964 2.359562 0.475275
v 0.352589 2.359562 0.475275
v 0.352589 2.359562 0.286510
vn 0.0000 1.0000 0.0000
usemtl 0.839216_0.886275_0.937255_0.000000_0.000000
s 1
f 129//26 130//26 131//26
f 131//26 132//26 129//26
o mesh26
v 0.352589 2.359562 0.286510
v 0.352589 2.359562 0.475275
v 0.352589 2.616584 0.475275
v 0.352589 2.616585 0.286510
vn -1.0000 0.0000 0.0000
usemtl 0.839216_0.886275_0.937255_0.000000_0.000000
s 1
f 133//27 134//27 135//27
f 135//27 136//27 133//27
o mesh27
v 0.352589 2.616585 0.286510
v 0.352589 2.616584 0.475275
v 0.168964 2.616584 0.475275
v 0.168964 2.616585 0.286510
vn 0.0000 -1.0000 -0.0000
usemtl 0.839216_0.886275_0.937255_0.000000_0.000000
s 1
f 137//28 138//28 139//28
f 139//28 140//28 137//28
o mesh28
v 0.352589 2.616585 0.286510
v 0.168964 2.616585 0.286510
v 0.168964 2.359562 0.286510
v 0.352589 2.359562 0.286510
vn 0.0000 -0.0000 1.0000
usemtl 0.839216_0.886275_0.937255_0.000000_0.000000
s 1
f 141//29 142//29 143//29
f 143//29 144//29 141//29
o mesh29
v -0.326651 2.616585 0.286510
v -0.326651 2.616584 0.475275
v -0.326651 2.359562 0.475275
v -0.326651 2.359562 0.286510
vn 1.0000 0.0000 0.0000
usemtl 0.839216_0.886275_0.937255_0.000000_0.000000
s 1
f 145//30 146//30 147//30
f 147//30 148//30 145//30
o mesh30
v -0.326651 2.359562 0.286510
v -0.326651 2.359562 0.475275
v -0.143027 2.359562 0.475275
v -0.143027 2.359562 0.286510
vn 0.0000 1.0000 0.0000
usemtl 0.839216_0.886275_0.937255_0.000000_0.000000
s 1
f 149//31 150//31 151//31
f 151//31 152//31 149//31
o mesh31
v -0.143027 2.359562 0.286510
v -0.143027 2.359562 0.475275
v -0.143027 2.616584 0.475275
v -0.143027 2.616585 0.286510
vn -1.0000 -0.0000 0.0000
usemtl 0.839216_0.886275_0.937255_0.000000_0.000000
s 1
f 153//32 154//32 155//32
f 155//32 156//32 153//32
o mesh32
v -0.143027 2.616585 0.286510
v -0.143027 2.616584 0.475275
v -0.326651 2.616584 0.475275
v -0.326651 2.616585 0.286510
vn 0.0000 -1.0000 -0.0000
usemtl 0.839216_0.886275_0.937255_0.000000_0.000000
s 1
f 157//33 158//33 159//33
f 159//33 160//33 157//33
o mesh33
v -0.143027 2.616585 0.286510
v -0.326651 2.616585 0.286510
v -0.326651 2.359562 0.286510
v -0.143027 2.359562 0.286510
vn 0.0000 -0.0000 1.0000
usemtl 0.839216_0.886275_0.937255_0.000000_0.000000
s 1
f 161//34 162//34 163//34
f 163//34 164//34 161//34
o mesh34
v -0.492853 0.209359 0.947187
v 0.956794 0.000000 0.947187
v 0.469810 0.238314 0.947187
v 0.768063 1.183198 0.947187
v 0.295944 0.814462 0.947187
v -0.010495 0.564235 0.947187
v 0.956794 1.887650 0.947187
v -0.016446 1.757710 0.947187
v 0.178540 1.183198 0.947187
v -0.802373 1.168718 0.947187
v -0.930856 0.000000 0.947187
v -0.930856 1.887650 0.947187
v -0.197785 1.182303 0.947187
v -0.324556 0.800114 0.947187
vn -0.0000 -0.0000 1.0000
usemtl 0.839216_0.886275_0.937255_0.000000_0.000000
s 1
f 165//35 166//35 167//35
f 168//35 169//35 167//35
f 167//35 170//35 165//35
f 166//35 171//35 168//35
f 171//35 172//35 173//35
f 174//35 175//35 165//35
f 167//35 166//35 168//35
f 171//35 176//35 172//35
f 176//35 174//35 177//35
f 165//35 178//35 174//35
f 173//35 168//35 171//35
f 174//35 176//35 175//35
f 177//35 172//35 176//35
f 165//35 175//35 166//35
o mesh35
v -0.016446 1.757710 0.569657
v -0.016446 1.757710 0.947187
v -0.197785 1.182303 0.947187
v -0.197785 1.182303 0.569657
vn 0.9538 -0.3006 0.0000
usemtl 0.839216_0.886275_0.937255_0.000000_0.000000
s 1
f 179//36 180//36 181//36
f 181//36 182//36 179//36
o mesh36
v -0.197785 1.182303 0.569657
v -0.197785 1.182303 0.947187
v -0.802373 1.168718 0.947187
v -0.802373 1.168718 0.569657
vn 0.0225 -0.9997 -0.0000
usemtl 0.839216_0.886275_0.937255_0.000000_0.000000
s 1
f 183//37 184//37 185//37
f 185//37 186//37 183//37
o mesh37
v -0.802373 1.168718 0.569657
v -0.802373 1.168718 0.947187
v -0.324556 0.800114 0.947187
v -0.324556 0.800114 0.569657
vn 0.6108 0.7918 0.0000
usemtl 0.839216_0.886275_0.937255_0.000000_0.000000
s 1
f 187//38 188//38 189//38
f 189//38 190//38 187//38
o mesh38
v -0.324556 0.800114 0.569657
v -0.324556 0.800114 0.947187
v -0.492853 0.209359 0.947187
v -0.492853 0.209359 0.569657
vn 0.9617 -0.2740 -0.0000
usemtl 0.839216_0.886275_0.937255_0.000000_0.000000
s 1
f 191//39 192//39 193//39
f 193//39 194//39 191//39
o mesh39
v -0.492853 0.209359 0.569657
v -0.492853 0.209359 0.947187
v -0.010495 0.564235 0.947187
v -0.010495 0.564236 0.569657
vn -0.5926 0.8055 0.0000
usemtl 0.839216_0.886275_0.937255_0.000000_0.000000
s 1
f 195//40 196//40 197//40
f 197//40 198//40 195//40
o mesh40
v -0.010495 0.564236 0.569657
v -0.010495 0.564235 0.947187
v 0.469810 0.238314 0.947187
v 0.469810 0.238314 0.569657
vn 0.5615 0.8275 0.0000
usemtl 0.839216_0.886275_0.937255_0.000000_0.000000
s 1
f 199//41 200//41 201//41
f 201//41 202//41 199//41
o mesh41
v 0.469810 0.238314 0.569657
v 0.469810 0.238314 0.947187
v 0.295944 0.814462 0.947187
v 0.295944 0.814462 0.569657
vn -0.9574 -0.2889 -0.0000
usemtl 0.839216_0.886275_0.937255_0.000000_0.000000
s 1
f 203//42 204//42 205//42
f 205//42 206//42 203//42
o mesh42
v 0.295944 0.814462 0.569657
v 0.295944 0.814462 0.947187
v 0.768063 1.183198 0.947187
v 0.768063 1.183198 0.569657
vn -0.6155 0.7881 0.0000
usemtl 0.839216_0.886275_0.937255_0.000000_0.000000
s 1
f 207//43 208//43 209//43
f 209//43 210//43 207//43
o mesh43
v 0.768063 1.183198 0.569657
v 0.768063 1.183198 0.947187
v 0.178540 1.183198 0.947187
v 0.178540 1.183198 0.569657
vn 0.0000 -1.0000 -0.0000
usemtl 0.839216_0.886275_0.937255_0.000000_0.000000
s 1
f 211//44 212//44 213//44
f 213//44 214//44 211//44
o mesh44
v 0.178540 1.183198 0.569657
v 0.178540 1.183198 0.947187
v -0.016446 1.757710 0.947187
v -0.016446 1.757710 0.569657
vn -0.9469 -0.3214 -0.0000
usemtl 0.839216_0.886275_0.937255_0.000000_0.000000
s 1
f 215//45 216//45 217//45
f 217//45 218//45 215//45
o mesh45
v -0.010495 0.564236 0.569657
v 0.469810 0.238314 0.569657
v 0.372802 0.370298 0.569657
v -0.011771 0.631258 0.569657
v -0.396345 0.348322 0.569657
v 0.295944 0.814462 0.569657
v 0.768063 1.183198 0.569657
v 0.609040 1.128456 0.569657
v 0.232706 0.834532 0.569657
v -0.492853 0.209359 0.569657
v 0.178540 1.183198 0.569657
v -0.016446 1.757710 0.569657
v -0.014519 1.581703 0.569657
v 0.139311 1.128456 0.569657
v -0.197785 1.182303 0.569657
v -0.802373 1.168718 0.569657
v -0.646317 1.117468 0.569657
v -0.157360 1.128456 0.569657
v -0.324556 0.800114 0.569657
v -0.261745 0.820797 0.569657
vn 0.0000 -0.0000 1.0000
usemtl 0.839216_0.886275_0.937255_0.000000_0.000000
s 1
f 219//46 220//46 221//46
f 219//46 222//46 223//46
f 224//46 225//46 226//46
f 224//46 227//46 221//46
f 223//46 228//46 219//46
f 221//46 220//46 224//46
f 229//46 230//46 231//46
f 229//46 232//46 226//46
f 233//46 234//46 235//46
f 233//46 236//46 231//46
f 237//46 228//46 223//46
f 237//46 238//46 235//46
f 226//46 227//46 224//46
f 226//46 225//46 229//46
f 231//46 230//46 233//46
f 235//46 234//46 237//46
f 231//46 232//46 229//46
f 223//46 238//46 237//46
f 235//46 236//46 233//46
f 221//46 222//46 219//46
o mesh46
v -0.646317 1.117468 0.569657
v -0.646317 1.117468 0.947187
v -0.157360 1.128456 0.947187
v -0.157360 1.128456 0.569657
vn -0.0225 0.9997 0.0000
usemtl 0.839216_0.886275_0.937255_0.000000_0.000000
s 1
f 239//47 240//47 241//47
f 241//47 242//47 239//47
o mesh47
v -0.261745 0.820797 0.947187
v 0.139311 1.128456 0.947187
v -0.157360 1.128456 0.947187
v -0.011771 0.631258 0.947187
v 0.372802 0.370298 0.947187
v 0.232706 0.834532 0.947187
v -0.646317 1.117468 0.947187
v -0.014519 1.581703 0.947187
v -0.396345 0.348322 0.947187
v 0.609040 1.128456 0.947187
vn 0.0000 -0.0000 1.0000
usemtl 0.839216_0.886275_0.937255_0.000000_0.000000
s 1
f 243//48 244//48 245//48
f 246//48 247//48 248//48
f 245//48 249//48 243//48
f 248//48 244//48 246//48
f 244//48 250//48 245//48
f 244//48 251//48 246//48
f 248//48 252//48 244//48
f 243//48 251//48 244//48
o mesh48
v -0.157360 1.128456 0.569657
v -0.157360 1.128456 0.947187
v -0.014519 1.581703 0.947187
v -0.014519 1.581703 0.569657
vn -0.9538 0.3006 0.0000
usemtl 0.839216_0.886275_0.937255_0.000000_0.000000
s 1
f 253//49 254//49 255//49
f 255//49 256//49 253//49
o mesh49
v -0.014519 1.581703 0.569657
v -0.014519 1.581703 0.947187
v 0.139311 1.128456 0.947187
v 0.139311 1.128456 0.569657
vn 0.9469 0.3214 0.0000
usemtl 0.839216_0.886275_0.937255_0.000000_0.000000
s 1
f 257//50 258//50 259//50
f 259//50 260//50 257//50
o mesh50
v 0.139311 1.128456 0.569657
v 0.139311 1.128456 0.947187
v 0.609040 1.128456 0.947187
v 0.609040 1.128456 0.569657
vn 0.0000 1.0000 0.0000
usemtl 0.839216_0.886275_0.937255_0.000000_0.000000
s 1
f 261//51 262//51 263//51
f 263//51 264//51 261//51
o mesh51
v 0.609040 1.128456 0.569657
v 0.609040 1.128456 0.947187
v 0.232706 0.834532 0.947187
v 0.232706 0.834532 0.569657
vn 0.6155 -0.7881 -0.0000
usemtl 0.839216_0.886275_0.937255_0.000000_0.000000
s 1
f 265//52 266//52 267//52
f 267//52 268//52 265//52
o mesh52
v 0.232706 0.834532 0.569657
v 0.232706 0.834532 0.947187
v 0.372802 0.370298 0.947187
v 0.372802 0.370298 0.569657
vn 0.9574 0.2889 0.0000
usemtl 0.839216_0.886275_0.937255_0.000000_0.000000
s 1
f 269//53 270//53 271//53
f 271//53 272//53 269//53
o mesh53
v 0.372802 0.370298 0.569657
v 0.372802 0.370298 0.947187
v -0.011771 0.631258 0.947187
v -0.011771 0.631258 0.569657
vn -0.5615 -0.8275 -0.0000
usemtl 0.839216_0.886275_0.937255_0.000000_0.000000
s 1
f 273//54 274//54 275//54
f 275//54 276//54 273//54
o mesh54
v -0.011771 0.631258 0.569657
v -0.011771 0.631258 0.947187
v -0.396345 0.348322 0.947187
v -0.396345 0.348322 0.569657
vn 0.5926 -0.8055 -0.0000
usemtl 0.839216_0.886275_0.937255_0.000000_0.000000
s 1
f 277//55 278//55 279//55
f 279//55 280//55 277//55
o mesh55
v -0.396345 0.348322 0.569657
v -0.396345 0.348322 0.947187
v -0.261745 0.820797 0.947187
v -0.261745 0.820797 0.569657
vn -0.9617 0.2740 0.0000
usemtl 0.839216_0.886275_0.937255_0.000000_0.000000
s 1
f 281//56 282//56 283//56
f 283//56 284//56 281//56
o mesh56
v -0.646317 1.117468 0.947187
v -0.646317 1.117468 0.569657
v -0.261745 0.820797 0.569657
v -0.261745 0.820797 0.947187
vn -0.6108 -0.7918 -0.0000
usemtl 0.839216_0.886275_0.937255_0.000000_0.000000
s 1
f 285//57 286//57 287//57
f 287//57 288//57 285//57
