mtllib PLAYER1.mtl
g Part 1
usemtl 0.839216_0.886275_0.937255_0.000000_0.000000
o mesh0
v 0 0.01 0.01 
v 0 0.01 0 
v 0 0 0 
v 0 0 0.01 
vn -1 0 0 
vn -1 0 0 
vn -1 0 0 
vn -1 0 0 
f 1//1 2//2 3//3 
f 3//3 4//4 1//1 
o mesh1
v 0 0 0.01 
v 0 0 0 
v 0.01 0 0 
v 0.01 0 0.01 
vn -0 -1 -0 
vn -0 -1 -0 
vn -0 -1 -0 
vn -0 -1 -0 
f 5//5 6//6 7//7 
f 7//7 8//8 5//5 
o mesh2
v 0.01 0 0.01 
v 0.01 0 0 
v 0.01 0.01 0 
v 0.01 0.01 0.01 
vn 1 3.46945e-16 -0 
vn 1 3.46945e-16 -0 
vn 1 3.46945e-16 -0 
vn 1 3.46945e-16 -0 
f 9//9 10//10 11//11 
f 11//11 12//12 9//9 
o mesh3
v 0.01 0.01 0.01 
v 0.01 0.01 0 
v 0 0.01 0 
v 0 0.01 0.01 
vn 0 1 0 
vn 0 1 0 
vn 0 1 0 
vn 0 1 0 
f 13//13 14//14 15//15 
f 15//15 16//16 13//13 
o mesh4
v 0.01 0 0 
v 0 0 0 
v 0 0.01 0 
v 0.01 0.01 0 
vn -0 -0 -1 
vn -0 -0 -1 
vn -0 -0 -1 
vn -0 -0 -1 
f 17//17 18//18 19//19 
f 19//19 20//20 17//17 
o mesh5
v 0.01 0.01 0.01 
v 0 0.01 0.01 
v 0.0025 0.0075 0.01 
v 0 0 0.01 
v 0.0025 0.0025 0.01 
v 0.01 0 0.01 
v 0.0075 0.0025 0.01 
v 0.0075 0.0075 0.01 
vn 0 0 1 
vn 0 0 1 
vn 0 0 1 
vn 0 0 1 
vn 0 0 1 
vn 0 0 1 
vn 0 0 1 
vn 0 0 1 
f 21//21 22//22 23//23 
f 22//22 24//24 25//25 
f 25//25 23//23 22//22 
f 24//24 26//26 27//27 
f 27//27 25//25 24//24 
f 26//26 21//21 28//28 
f 28//28 27//27 26//26 
f 23//23 28//28 21//21 
o mesh6
v 0.0075 0.0025 0.015 
v 0.0075 0.0025 0.01 
v 0.0075 0.0075 0.01 
v 0.0075 0.0075 0.015 
vn 1 3.46945e-16 0 
vn 1 3.46945e-16 0 
vn 1 3.46945e-16 0 
vn 1 3.46945e-16 0 
f 29//29 30//30 31//31 
f 31//31 32//32 29//29 
o mesh7
v 0.0075 0.0075 0.015 
v 0.0075 0.0075 0.01 
v 0.0025 0.0075 0.01 
v 0.0025 0.0075 0.015 
vn -0 1 -0 
vn -0 1 -0 
vn -0 1 -0 
vn -0 1 -0 
f 33//33 34//34 35//35 
f 35//35 36//36 33//33 
o mesh8
v 0.0025 0.0075 0.015 
v 0.0025 0.0075 0.01 
v 0.0025 0.0025 0.01 
v 0.0025 0.0025 0.015 
vn -1 -2.60209e-16 -0 
vn -1 -2.60209e-16 -0 
vn -1 -2.60209e-16 -0 
vn -1 -2.60209e-16 -0 
f 37//37 38//38 39//39 
f 39//39 40//40 37//37 
o mesh9
v 0.0025 0.0025 0.015 
v 0.0075 0.0025 0.015 
v 0.0075 0.0075 0.015 
v 0.0025 0.0075 0.015 
vn 0 0 1 
vn 0 0 1 
vn 0 0 1 
vn 0 0 1 
f 41//41 42//42 43//43 
f 43//43 44//44 41//41 
o mesh10
v 0.0025 0.0025 0.01 
v 0.0058264 0.0025 0.0125 
v 0.0041736 0.0025 0.0125 
v 0.0041736 0.0025 0.0138616 
v 0.0075 0.0025 0.015 
v 0.0058264 0.0025 0.0138616 
v 0.00320083 0.0025 0.0125 
v 0.0075 0.0025 0.01 
v 0.00679917 0.0025 0.0125 
v 0.0025 0.0025 0.015 
v 0.00320083 0.0025 0.0138616 
v 0.00679917 0.0025 0.0138616 
vn 1.73472e-16 -1 0 
vn 1.73472e-16 -1 0 
vn 1.73472e-16 -1 0 
vn 1.73472e-16 -1 0 
vn 1.73472e-16 -1 0 
vn 1.73472e-16 -1 0 
vn 1.73472e-16 -1 0 
vn 1.73472e-16 -1 0 
vn 1.73472e-16 -1 0 
vn 1.73472e-16 -1 0 
vn 1.73472e-16 -1 0 
vn 1.73472e-16 -1 0 
f 45//45 46//46 47//47 
f 48//48 47//47 46//46 
f 49//49 48//48 50//50 
f 46//46 50//50 48//48 
f 47//47 51//51 45//45 
f 52//52 53//53 46//46 
f 54//54 55//55 48//48 
f 54//54 45//45 51//51 
f 46//46 45//45 52//52 
f 49//49 56//56 53//53 
f 51//51 55//55 54//54 
f 53//53 52//52 49//49 
f 50//50 56//56 49//49 
f 48//48 49//49 54//54 
o mesh11
v 0.0058264 0.0035 0.0138616 
v 0.0058264 0.0025 0.0138616 
v 0.0058264 0.0025 0.0125 
v 0.0058264 0.0035 0.0125 
vn 1 1.73472e-16 0 
vn 1 1.73472e-16 0 
vn 1 1.73472e-16 0 
vn 1 1.73472e-16 0 
f 57//57 58//58 59//59 
f 59//59 60//60 57//57 
o mesh12
v 0.0058264 0.0035 0.0125 
v 0.0058264 0.0025 0.0125 
v 0.00679917 0.0025 0.0125 
v 0.00679917 0.0035 0.0125 
vn -0 -0 1 
vn -0 -0 1 
vn -0 -0 1 
vn -0 -0 1 
f 61//61 62//62 63//63 
f 63//63 64//64 61//61 
o mesh13
v 0.00679917 0.0035 0.0125 
v 0.00679917 0.0025 0.0125 
v 0.00679917 0.0025 0.0138616 
v 0.00679917 0.0035 0.0138616 
vn -1 -1.73472e-16 -0 
vn -1 -1.73472e-16 -0 
vn -1 -1.73472e-16 -0 
vn -1 -1.73472e-16 -0 
f 65//65 66//66 67//67 
f 67//67 68//68 65//65 
o mesh14
v 0.00679917 0.0035 0.0138616 
v 0.00679917 0.0025 0.0138616 
v 0.0058264 0.0025 0.0138616 
v 0.0058264 0.0035 0.0138616 
vn 0 0 -1 
vn 0 0 -1 
vn 0 0 -1 
vn 0 0 -1 
f 69//69 70//70 71//71 
f 71//71 72//72 69//69 
o mesh15
v 0.00679917 0.0035 0.0138616 
v 0.0058264 0.0035 0.0138616 
v 0.0058264 0.0035 0.0125 
v 0.00679917 0.0035 0.0125 
vn 1.73472e-16 -1 0 
vn 1.73472e-16 -1 0 
vn 1.73472e-16 -1 0 
vn 1.73472e-16 -1 0 
f 73//73 74//74 75//75 
f 75//75 76//76 73//73 
o mesh16
v 0.00320083 0.0035 0.0138616 
v 0.00320083 0.0025 0.0138616 
v 0.00320083 0.0025 0.0125 
v 0.00320083 0.0035 0.0125 
vn 1 1.73472e-16 0 
vn 1 1.73472e-16 0 
vn 1 1.73472e-16 0 
vn 1 1.73472e-16 0 
f 77//77 78//78 79//79 
f 79//79 80//80 77//77 
o mesh17
v 0.00320083 0.0035 0.0125 
v 0.00320083 0.0025 0.0125 
v 0.0041736 0.0025 0.0125 
v 0.0041736 0.0035 0.0125 
vn -0 -0 1 
vn -0 -0 1 
vn -0 -0 1 
vn -0 -0 1 
f 81//81 82//82 83//83 
f 83//83 84//84 81//81 
o mesh18
v 0.0041736 0.0035 0.0125 
v 0.0041736 0.0025 0.0125 
v 0.0041736 0.0025 0.0138616 
v 0.0041736 0.0035 0.0138616 
vn -1 -1.73472e-16 -0 
vn -1 -1.73472e-16 -0 
vn -1 -1.73472e-16 -0 
vn -1 -1.73472e-16 -0 
f 85//85 86//86 87//87 
f 87//87 88//88 85//85 
o mesh19
v 0.0041736 0.0035 0.0138616 
v 0.0041736 0.0025 0.0138616 
v 0.00320083 0.0025 0.0138616 
v 0.00320083 0.0035 0.0138616 
vn 0 0 -1 
vn 0 0 -1 
vn 0 0 -1 
vn 0 0 -1 
f 89//89 90//90 91//91 
f 91//91 92//92 89//89 
o mesh20
v 0.0041736 0.0035 0.0138616 
v 0.00320083 0.0035 0.0138616 
v 0.00320083 0.0035 0.0125 
v 0.0041736 0.0035 0.0125 
vn 1.73472e-16 -1 0 
vn 1.73472e-16 -1 0 
vn 1.73472e-16 -1 0 
vn 1.73472e-16 -1 0 
f 93//93 94//94 95//95 
f 95//95 96//96 93//93 
