# Blender v2.81 (sub 16) OBJ File: ''
# www.blender.org
mtllib STAGE2.mtl
o mesh0
v -7.735775 4.244144 -4.752239
v 7.519426 4.244144 -4.752239
v 7.519426 1.964567 -4.951677
v -7.735775 1.964567 -4.951677
vn 0.0000 0.0872 -0.9962
usemtl 0.615686_0.811765_0.929412_0.000000_0.000000
s 1
f 1//1 2//1 3//1
f 3//1 4//1 1//1
o mesh1
v 7.519426 3.266032 6.427606
v 7.519426 4.244144 -4.752239
v -7.735775 4.244144 -4.752239
v -7.735775 3.266032 6.427606
vn 0.0000 0.9962 0.0872
usemtl 0.615686_0.811765_0.929412_0.000000_0.000000
s 1
f 5//2 6//2 7//2
f 7//2 8//2 5//2
o mesh2
v -7.735775 3.266032 6.427606
v -7.735775 4.244144 -4.752239
v -7.735775 1.964567 -4.951677
v -7.735775 0.986455 6.228168
vn -1.0000 0.0000 0.0000
usemtl 0.615686_0.811765_0.929412_0.000000_0.000000
s 1
f 9//3 10//3 11//3
f 11//3 12//3 9//3
o mesh3
v 7.519426 3.266032 6.427606
v -7.735775 3.266032 6.427606
v -7.735775 0.986455 6.228168
v 7.519426 0.986455 6.228168
vn 0.0000 -0.0872 0.9962
usemtl 0.615686_0.811765_0.929412_0.000000_0.000000
s 1
f 13//4 14//4 15//4
f 15//4 16//4 13//4
o mesh4
v 7.519426 4.244144 -4.752239
v 7.519426 3.266032 6.427606
v 7.519426 0.986455 6.228168
v 7.519426 1.964567 -4.951677
vn 1.0000 -0.0000 0.0000
usemtl 0.615686_0.811765_0.929412_0.000000_0.000000
s 1
f 17//5 18//5 19//5
f 19//5 20//5 17//5
o mesh5
v -7.735775 0.986455 6.228168
v -7.735775 1.964567 -4.951677
v -6.210283 0.311891 -3.564917
v -6.210283 -0.400305 4.575491
vn -0.7071 -0.7044 -0.0616
usemtl 0.615686_0.811765_0.929412_0.000000_0.000000
s 1
f 21//6 22//6 23//6
f 23//6 24//6 21//6
o mesh6
v -6.210283 0.311891 -3.564917
v 5.993903 0.311891 -3.564917
v 5.993903 -0.400305 4.575491
v -6.210283 -0.400305 4.575491
vn 0.0000 -0.9962 -0.0872
usemtl 0.615686_0.811765_0.929412_0.000000_0.000000
s 1
f 25//7 26//7 27//7
f 27//7 28//7 25//7
o mesh7
v 7.519426 1.964567 -4.951677
v 5.993903 0.311891 -3.564917
v -6.210283 0.311891 -3.564917
v -7.735775 1.964567 -4.951677
vn 0.0000 -0.6428 -0.7660
usemtl 0.615686_0.811765_0.929412_0.000000_0.000000
s 1
f 29//8 30//8 31//8
f 31//8 32//8 29//8
o mesh8
v 7.519426 0.986455 6.228168
v -7.735775 0.986455 6.228168
v -6.210283 -0.400305 4.575491
v 5.993903 -0.400305 4.575491
vn 0.0000 -0.7660 0.6428
usemtl 0.615686_0.811765_0.929412_0.000000_0.000000
s 1
f 33//9 34//9 35//9
f 35//9 36//9 33//9
o mesh9
v 7.519426 1.964567 -4.951677
v 7.519426 0.986455 6.228168
v 5.993903 -0.400305 4.575491
v 5.993903 0.311891 -3.564917
vn 0.7071 -0.7044 -0.0616
usemtl 0.615686_0.811765_0.929412_0.000000_0.000000
s 1
f 37//10 38//10 39//10
f 39//10 40//10 37//10
