mtllib STAGE1.mtl
g Part 1
usemtl 0.972549_0.529412_0.003922_0.000000_0.000000
o mesh0
v 0 0 0.02 
v 0 0 0.01 
v 0 0.0477724 0.01 
v 0 0.0477724 0.02 
vn 1 0 0 
vn 1 0 0 
vn 1 0 0 
vn 1 0 0 
f 1//1 2//2 3//3 
f 3//3 4//4 1//1 
o mesh1
v 0.085173 0 0.02 
v 0.085173 0 0.01 
v 0 0 0.01 
v 0 0 0.02 
vn 0 1 0 
vn 0 1 0 
vn 0 1 0 
vn 0 1 0 
f 5//5 6//6 7//7 
f 7//7 8//8 5//5 
o mesh2
v 0.0576329 0.0477724 0.02 
v 0 0.0477724 0.02 
v 0 0.0477724 0.01 
v 0.0576329 0.0477724 0.01 
vn 0 -1 0 
vn 0 -1 0 
vn 0 -1 0 
vn 0 -1 0 
f 9//9 10//10 11//11 
f 11//11 12//12 9//9 
o mesh3
v 0.0576329 0.12403 0.02 
v 0.0576329 0.0477724 0.02 
v 0.0576329 0.0477724 0.01 
v 0.0576329 0.12403 0.01 
vn 1 0 0 
vn 1 0 0 
vn 1 0 0 
vn 1 0 0 
f 13//13 14//14 15//15 
f 15//15 16//16 13//13 
o mesh4
v 0 0.12403 0.02 
v 0.0576329 0.12403 0.02 
v 0.0576329 0.12403 0.01 
v 0 0.12403 0.01 
vn 0 1 0 
vn 0 1 0 
vn 0 1 0 
vn 0 1 0 
f 17//17 18//18 19//19 
f 19//19 20//20 17//17 
o mesh5
v 0 0.12403 0.02 
v 0 0.12403 0.01 
v 0 0.24882 0.01 
v 0 0.24882 0.02 
vn 1 0 0 
vn 1 0 0 
vn 1 0 0 
vn 1 0 0 
f 21//21 22//22 23//23 
f 23//23 24//24 21//21 
o mesh6
v 0 0.24882 0.02 
v 0 0.24882 0.01 
v 0.12738 0.24882 0.01 
v 0.12738 0.24882 0.02 
vn 0 -1 0 
vn 0 -1 0 
vn 0 -1 0 
vn 0 -1 0 
f 25//25 26//26 27//27 
f 27//27 28//28 25//25 
o mesh7
v 0 0 0.01 
v 0.085173 0 0.01 
v 0.0576329 0.0477724 0.01 
v 0.085173 0.12403 0.01 
v 0.0576329 0.12403 0.01 
v 0 0.24882 0.01 
v 0 0.12403 0.01 
v 0.12738 0.24882 0.01 
v 0 0.0477724 0.01 
v 0.12738 0.12403 0.01 
vn 0 0 1 
vn 0 0 1 
vn 0 0 1 
vn 0 0 1 
vn 0 0 1 
vn 0 0 1 
vn 0 0 1 
vn 0 0 1 
vn 0 0 1 
vn 0 0 1 
f 29//29 30//30 31//31 
f 32//32 33//33 31//31 
f 31//31 30//30 32//32 
f 34//34 35//35 33//33 
f 36//36 34//34 32//32 
f 33//33 32//32 34//34 
f 31//31 37//37 29//29 
f 32//32 38//38 36//36 
o mesh8
v 0.12738 0.24882 0.02 
v 0.12738 0.24882 0.01 
v 0.12738 0.12403 0.01 
v 0.12738 0.12403 0.02 
vn -1 0 0 
vn -1 0 0 
vn -1 0 0 
vn -1 0 0 
f 39//39 40//40 41//41 
f 41//41 42//42 39//39 
o mesh9
v 0.085173 0.12403 0.02 
v 0.12738 0.12403 0.02 
v 0.12738 0.12403 0.01 
v 0.085173 0.12403 0.01 
vn 0 1 0 
vn 0 1 0 
vn 0 1 0 
vn 0 1 0 
f 43//43 44//44 45//45 
f 45//45 46//46 43//43 
o mesh10
v 0.085173 0 0.02 
v 0.085173 0.12403 0.02 
v 0.085173 0.12403 0.01 
v 0.085173 0 0.01 
vn -1 0 0 
vn -1 0 0 
vn -1 0 0 
vn -1 0 0 
f 47//47 48//48 49//49 
f 49//49 50//50 47//47 
o mesh11
v 0.0526329 0.0527724 0.02 
v -0.005 0.0527724 0.02 
v 0 0.0477724 0.02 
v 0.0576329 0.0477724 0.02 
v 0.0576329 0.12403 0.02 
v 0.0526329 0.11903 0.02 
v -0.005 0.25382 0.02 
v 0 0.24882 0.02 
v 0.12738 0.24882 0.02 
v -0.005 0.11903 0.02 
v 0 0.12403 0.02 
v -0.005 -0.005 0.02 
v 0 0 0.02 
v 0.090173 -0.005 0.02 
v 0.085173 0 0.02 
v 0.090173 0.11903 0.02 
v 0.13238 0.11903 0.02 
v 0.12738 0.12403 0.02 
v 0.13238 0.25382 0.02 
v 0.085173 0.12403 0.02 
vn 0 0 1 
vn 0 0 1 
vn 0 0 1 
vn 0 0 1 
vn 0 0 1 
vn 0 0 1 
vn 0 0 1 
vn 0 0 1 
vn 0 0 1 
vn 0 0 1 
vn 0 0 1 
vn 0 0 1 
vn 0 0 1 
vn 0 0 1 
vn 0 0 1 
vn 0 0 1 
vn 0 0 1 
vn 0 0 1 
vn 0 0 1 
vn 0 0 1 
f 51//51 52//52 53//53 
f 54//54 55//55 56//56 
f 57//57 58//58 59//59 
f 60//60 61//61 58//58 
f 56//56 51//51 54//54 
f 56//56 55//55 61//61 
f 58//58 57//57 60//60 
f 61//61 60//60 56//56 
f 53//53 54//54 51//51 
f 52//52 62//62 63//63 
f 63//63 53//53 52//52 
f 64//64 65//65 63//63 
f 66//66 67//67 68//68 
f 67//67 69//69 59//59 
f 63//63 62//62 64//64 
f 66//66 70//70 65//65 
f 59//59 68//68 67//67 
f 65//65 64//64 66//66 
f 59//59 69//69 57//57 
f 68//68 70//70 66//66 
o mesh12
v 0.090173 -0.005 0.02 
v 0.090173 -0.005 0 
v 0.090173 0.11903 0 
v 0.090173 0.11903 0.02 
vn 1 -0 -0 
vn 1 -0 -0 
vn 1 -0 -0 
vn 1 -0 -0 
f 71//71 72//72 73//73 
f 73//73 74//74 71//71 
o mesh13
v 0.090173 0.11903 0 
v 0.090173 -0.005 0 
v 0.0526329 0.0527724 0 
v 0.13238 0.25382 0 
v 0.13238 0.11903 0 
v -0.005 0.25382 0 
v 0.0526329 0.11903 0 
v -0.005 -0.005 0 
v -0.005 0.0527724 0 
v -0.005 0.11903 0 
vn -0 -0 -1 
vn -0 -0 -1 
vn -0 -0 -1 
vn -0 -0 -1 
vn -0 -0 -1 
vn -0 -0 -1 
vn -0 -0 -1 
vn -0 -0 -1 
vn -0 -0 -1 
vn -0 -0 -1 
f 75//75 76//76 77//77 
f 78//78 79//79 75//75 
f 80//80 78//78 81//81 
f 75//75 81//81 78//78 
f 77//77 81//81 75//75 
f 82//82 83//83 77//77 
f 77//77 76//76 82//82 
f 81//81 84//84 80//80 
o mesh14
v 0.090173 0.11903 0.02 
v 0.090173 0.11903 0 
v 0.13238 0.11903 0 
v 0.13238 0.11903 0.02 
vn -0 -1 -0 
vn -0 -1 -0 
vn -0 -1 -0 
vn -0 -1 -0 
f 85//85 86//86 87//87 
f 87//87 88//88 85//85 
o mesh15
v 0.13238 0.11903 0.02 
v 0.13238 0.11903 0 
v 0.13238 0.25382 0 
v 0.13238 0.25382 0.02 
vn 1 -0 -0 
vn 1 -0 -0 
vn 1 -0 -0 
vn 1 -0 -0 
f 89//89 90//90 91//91 
f 91//91 92//92 89//89 
o mesh16
v 0.13238 0.25382 0.02 
v 0.13238 0.25382 0 
v -0.005 0.25382 0 
v -0.005 0.25382 0.02 
vn -0 1 -0 
vn -0 1 -0 
vn -0 1 -0 
vn -0 1 -0 
f 93//93 94//94 95//95 
f 95//95 96//96 93//93 
o mesh17
v -0.005 0.25382 0.02 
v -0.005 0.25382 0 
v -0.005 0.11903 0 
v -0.005 0.11903 0.02 
vn -1 -0 -0 
vn -1 -0 -0 
vn -1 -0 -0 
vn -1 -0 -0 
f 97//97 98//98 99//99 
f 99//99 100//100 97//97 
o mesh18
v -0.005 0.11903 0.02 
v -0.005 0.11903 0 
v 0.0526329 0.11903 0 
v 0.0526329 0.11903 0.02 
vn -0 -1 -0 
vn -0 -1 -0 
vn -0 -1 -0 
vn -0 -1 -0 
f 101//101 102//102 103//103 
f 103//103 104//104 101//101 
o mesh19
v 0.0526329 0.11903 0.02 
v 0.0526329 0.11903 0 
v 0.0526329 0.0527724 0 
v 0.0526329 0.0527724 0.02 
vn -1 -0 -0 
vn -1 -0 -0 
vn -1 -0 -0 
vn -1 -0 -0 
f 105//105 106//106 107//107 
f 107//107 108//108 105//105 
o mesh20
v 0.0526329 0.0527724 0.02 
v 0.0526329 0.0527724 0 
v -0.005 0.0527724 0 
v -0.005 0.0527724 0.02 
vn -0 1 -0 
vn -0 1 -0 
vn -0 1 -0 
vn -0 1 -0 
f 109//109 110//110 111//111 
f 111//111 112//112 109//109 
o mesh21
v -0.005 0.0527724 0.02 
v -0.005 0.0527724 0 
v -0.005 -0.005 0 
v -0.005 -0.005 0.02 
vn -1 -0 -0 
vn -1 -0 -0 
vn -1 -0 -0 
vn -1 -0 -0 
f 113//113 114//114 115//115 
f 115//115 116//116 113//113 
o mesh22
v -0.005 -0.005 0.02 
v -0.005 -0.005 0 
v 0.090173 -0.005 0 
v 0.090173 -0.005 0.02 
vn -0 -1 -0 
vn -0 -1 -0 
vn -0 -1 -0 
vn -0 -1 -0 
f 117//117 118//118 119//119 
f 119//119 120//120 117//117 
